<svg xmlns="http://www.w3.org/2000/svg" viewBox="23.8 123.3 547.8 595.3"><path d="M186.7 470.7c-4.8 0-8.7 3.9-8.7 8.7v20.1c0 4.8 3.9 8.7 8.7 8.7s8.7-3.9 8.7-8.7v-20.1c0-4.8-3.9-8.7-8.7-8.7zM408.7 470.7c-4.8 0-8.7 3.9-8.7 8.7v20.1c0 4.8 3.9 8.7 8.7 8.7 4.8 0 8.7-3.9 8.7-8.7v-20.1c0-4.8-3.9-8.7-8.7-8.7zM330.8 491.6c-3.6-3.2-9.1-2.8-12.3.8-5.1 5.8-12.7 9.1-20.8 9.1-8.2 0-15.8-3.3-20.8-9.1-3.2-3.6-8.7-4-12.3-.8-3.6 3.2-4 8.7-.8 12.3 8.4 9.6 20.8 15.1 34 15.1s25.6-5.5 34-15.1c3-3.6 2.6-9.1-1-12.3z"/><path d="M503.4 303.3c-26.3-19.6-57.9-30.7-91.5-32-26.3-1.1-53.3 3.9-79.3 14.5.3-9.7 0-19.1-.8-28.2-.2-2.7-.5-5.3-.9-7.9h.7c20.5 0 41.5-7.4 59-20.9 28-21.5 42.6-54.9 37-84.9-.5-2.7-2.3-5.1-4.8-6.3-9.7-4.6-20.9-7.1-32.5-7.1-20.5 0-41.5 7.4-59 20.9-10.2 7.9-18.8 17.3-25.2 27.8-15.8-24.1-38.5-42.5-67.5-54.6-2.3-1-4.7-1.4-7.2-1.4-8 0-15.2 5.1-17.9 12.7l-4.9 14.3c-3.2 9.3 1.3 19.7 10.4 23.5 35.8 15.2 56 44.7 60.1 87.6 1 10.1 1 20.8.2 31.9-27-13.8-55-21.3-83.3-22.1-29.7-.9-58.7 5.8-84 19.4-4.2 2.3-5.8 7.6-3.6 11.8 2.3 4.2 7.6 5.8 11.8 3.6 47.8-25.7 105.9-23 159.2 7.3 5.5 3.1 11.9 4.8 18.3 4.8 10.1 0 17.8-4.8 26.4-9.2 28.2-14.4 58.1-21.3 87-20.1 30.1 1.2 58.4 11.1 81.8 28.6 52.1 38.8 72.5 108 54.8 185.1-10.7 46.4-25.4 85.5-43.9 116.3-2.5 4.1-1.1 9.5 3 12 4.1 2.4 9.5 1.1 12-3 19.4-32.4 34.8-73.2 45.9-121.4 19.4-84-3.5-159.9-61.3-203zm-188.7-9.2c-2.5 1.3-4.9 2.6-7.4 4-3.4 2-7.4 2.8-11.2 2.5 1.4-14.2 1.5-27.9.3-40.7-4.8-49.8-28.5-84.1-70.6-102-.7-.3-1-1.1-.8-1.8l4.9-14.3c.3-.7 1.1-1.2 1.9-.9 24.4 10.1 43.8 25.3 57.7 45.1 15 21.4 22.6 47.3 24.9 73.2 1 11.1 1.1 22.8.3 34.9zm13.2-61.9c-.7-3.2-1.5-6.3-2.3-9.3 13.6-13.8 33.1-31.3 54.6-43.6 4.2-2.4 5.7-7.7 3.3-11.9-2.4-4.2-7.7-5.7-11.9-3.3-20.1 11.4-38.4 27-52.3 40.4-1-2.4-2-4.7-3.1-7 5.4-12.3 14.2-23.4 25.6-32.2 14.5-11.2 31.7-17.3 48.4-17.3 7.3 0 14.5 1.2 20.8 3.6 2.2 22.5-9.7 46.9-31.1 63.4-14.5 11.1-31.7 17.3-48.4 17.3-1.2 0-2.4-.1-3.6-.1zM496.6 645.6c-3.7-3.1-9.2-2.5-12.3 1.2-39 47.3-81.9 54.4-104 54.4-23.6 0-36.2-3.3-48.4-6.5-23.6-6.2-45.1-6.2-68.6 0-12.2 3.2-24.7 6.5-48.4 6.5-20.7 0-52-5.8-83.6-33.3-38-33.1-66.2-88.8-83.9-165.4-16.7-72.3-.2-136.9 45.2-177.3 3.6-3.2 3.9-8.7.7-12.3-3.2-3.6-8.7-3.9-12.3-.7-23.6 21-40.9 49.1-49.9 81.1-9.8 34.6-10 72.7-.7 113.2C74.7 697.9 174.3 718.6 215 718.6c25.9 0 40.2-3.8 52.8-7.1 20.6-5.5 39.1-5.4 59.7 0 12.6 3.3 26.9 7.1 52.8 7.1 25.2 0 73.9-7.9 117.4-60.7 3.1-3.8 2.6-9.2-1.1-12.3z"/></svg>