<svg xmlns="http://www.w3.org/2000/svg" viewBox="0 1 512 495.5"><path d="M97.5 459.5c0 4.3-3.5 7.8-7.8 7.8s-7.8-3.5-7.8-7.8 3.5-7.8 7.8-7.8 7.8 3.5 7.8 7.8zM275.3 111.6v13.2c0 4.1 3.4 7.5 7.5 7.5s7.5-3.4 7.5-7.5v-13.2c0-4.1-3.4-7.5-7.5-7.5-4.2 0-7.5 3.4-7.5 7.5zM421.6 111.6v13.2c0 4.1 3.4 7.5 7.5 7.5s7.5-3.4 7.5-7.5v-13.2c0-4.1-3.4-7.5-7.5-7.5s-7.5 3.4-7.5 7.5zM368.3 119c-3 3.4-7.5 5.4-12.4 5.4s-9.4-2-12.4-5.4c-2.7-3.1-7.5-3.4-10.6-.7-3.1 2.7-3.4 7.5-.7 10.6 5.9 6.7 14.5 10.6 23.7 10.6s17.8-3.8 23.7-10.6c2.7-3.1 2.4-7.9-.7-10.6-3.1-2.7-7.8-2.4-10.6.7z"/><path d="M246.3 36.7c-29.9 23.4-46.4 54.7-46.4 88.1 0 33.4 16.5 64.7 46.4 88.1 27.3 21.4 63 33.9 101.1 35.5-2.8 11.3-10.1 26.4-13.4 32.3-2.7 4.9 1 11.1 6.6 11.1 20.1 0 37.4-9.3 49.9-26.9 5.7-7.9 9.4-16.2 11.3-21.8 30.3-7.4 57.6-22.3 77.2-42.2 21.5-21.9 32.9-48.2 32.9-76.1 0-30.5-14-59.8-39.6-82.4-3.1-2.8-7.8-2.5-10.6.6s-2.5 7.8.6 10.6c22.3 19.8 34.5 45.1 34.5 71.2 0 48.4-42.2 91.5-102.6 104.7-2.8.6-4.9 2.7-5.7 5.4 0 .1-2.8 10.7-10.4 21.3-6.8 9.6-15.1 15.9-24.7 18.8 4.6-10.1 9.9-23.9 9.9-33.9 0-4.1-3.4-7.5-7.5-7.5-77.8 0-141.1-48.8-141.1-108.8S278.2 16 355.9 16c30.5 0 59.5 7.4 83.9 21.4 3.6 2.1 8.2.8 10.2-2.8s.8-8.2-2.8-10.2C420.6 9.1 389 1 355.9 1c-41.3 0-80.3 12.7-109.6 35.7zM7.5 496.5h246.8c19.3 0 35-15.7 35-35 0-11.2-5.2-21.1-13.4-27.5 8.2-6.4 13.4-16.4 13.4-27.5 0-11.2-5.2-21.1-13.4-27.5 8.2-6.4 13.4-16.4 13.4-27.5 0-11.2-5.2-21.1-13.4-27.5 8.2-6.4 13.4-16.4 13.4-27.5 0-19.3-15.7-35-35-35h-26.8V237c0-19.3-15.7-35-35-35s-35 15.7-35 35v24.2H7.5c-4.1 0-7.5 3.4-7.5 7.5V489c0 4.1 3.4 7.5 7.5 7.5zm266.8-200.3c0 11.1-9 20-20 20-4.1 0-7.5 3.4-7.5 7.5s3.4 7.5 7.5 7.5c11.1 0 20 9 20 20 0 11.1-9 20-20 20-4.1 0-7.5 3.4-7.5 7.5s3.4 7.5 7.5 7.5c11.1 0 20 9 20 20 0 11.1-9 20-20 20-4.1 0-7.5 3.4-7.5 7.5s3.4 7.5 7.5 7.5c11.1 0 20 9 20 20s-9 20-20 20H123.9v-205h130.4c11 0 20 9 20 20zM172.4 237c0-11.1 9-20 20-20s20 9 20 20v24.2h-40.1V237zM15 276.2h40.5v40.6c0 4.1 3.4 7.5 7.5 7.5s7.5-3.4 7.5-7.5v-40.6h38.4v205.3H70.5V346.7c0-4.1-3.4-7.5-7.5-7.5s-7.5 3.4-7.5 7.5v134.8H15V276.2z"/></svg>