<svg id="Layer_1" xmlns="http://www.w3.org/2000/svg" viewBox="0 0 511 511"><style>.st0{fill:#c1b696}</style><path class="st0" d="M244.7 426.8c2.1 1.1 4.8 1.1 7 0 54.1-28.4 93.4-59.5 116.7-92.5 25.5-36.1 25.5-65.4 21.1-83.5-4.2-16.8-13.8-31.2-27.9-41.6-13.6-10-30.8-15.5-48.4-15.5-22.9 0-45.7 9.1-64.9 25.8-19.2-16.7-42-25.8-64.9-25.8-17.6 0-34.8 5.5-48.4 15.5-14.1 10.4-23.8 24.7-27.9 41.6-4.5 18.2-4.4 47.4 21.1 83.5 23.1 33 62.3 64.2 116.5 92.5zM121.4 254.4c6.7-27.3 31.6-45.7 61.8-45.7 21.1 0 42.3 9.4 59.7 26.3 2.9 2.8 7.6 2.8 10.5 0 17.4-17 38.6-26.3 59.7-26.3 30.2 0 55.1 18.3 61.8 45.7 3.7 15.1 3.5 39.8-18.8 71.3-21.4 30.4-57.7 59.3-107.9 86-50.2-26.7-86.5-55.7-107.9-86-22.4-31.5-22.6-56.2-18.9-71.3z"/><path class="st0" d="M183.1 310c4.1 0 7.5-3.4 7.5-7.5v-11.8c0-4.1-3.3-7.5-7.5-7.5-4.1 0-7.5 3.3-7.5 7.5v11.8c0 4.2 3.3 7.5 7.5 7.5zM313.2 310c4.1 0 7.5-3.4 7.5-7.5v-11.8c0-4.1-3.4-7.5-7.5-7.5s-7.5 3.3-7.5 7.5v11.8c0 4.2 3.4 7.5 7.5 7.5zM248.1 316.3c8.4 0 16.3-3.5 21.7-9.7 2.7-3.1 2.4-7.8-.7-10.6-3.1-2.7-7.8-2.4-10.6.7-2.5 2.9-6.3 4.5-10.4 4.5-4.1 0-7.9-1.7-10.4-4.5-2.7-3.1-7.4-3.4-10.6-.7-3.1 2.7-3.4 7.5-.7 10.6 5.4 6.2 13.3 9.7 21.7 9.7z"/><path class="st0" d="M511 98.1c0-33.8-25.6-61.8-58.5-65.5v-5.4c0-14.4-11.7-26.2-26.2-26.2-14.4 0-26.2 11.7-26.2 26.2v5h-37.8v-5c0-14.4-11.7-26.2-26.2-26.2-14.4 0-26.2 11.7-26.2 26.2v5h-37.8v-5c0-14.4-11.7-26.2-26.2-26.2C231.8 1 220 12.7 220 27.2v5h-37.8v-5C182.2 12.8 170.5 1 156 1c-14.3 0-26 11.7-26 26.2v5.2c-34.4 2.2-61.6 30.9-61.6 65.8v56.1c0 1.7-1.8 98.9-32.9 186.9-1.4 3.9.7 8.2 4.6 9.5.8.3 1.7.4 2.5.4 3.1 0 6-1.9 7.1-5C77 268.6 82.2 186.6 83.2 161.8h318.2c4.1 0 7.5-3.4 7.5-7.5s-3.4-7.5-7.5-7.5h-318V98.1c0-26.7 20.6-48.6 46.7-50.8v4.8c0 14.2 11.9 26.2 26.2 26.2 14.2 0 26.2-12 26.2-26.2v-5H220v5c0 14.4 11.7 26.2 26.2 26.2 14.2 0 26.2-11.9 26.2-26.2v-5h37.8v5c0 14.2 11.9 26.2 26.2 26.2 14.2 0 26.2-12 26.2-26.2v-5h37.8v5c0 14.2 11.9 26.2 26.2 26.2 14.2 0 26.2-12 26.2-26.2v-4.4c24.6 3.6 43.5 24.9 43.5 50.5v48.7h-64.8c-4.1 0-7.5 3.3-7.5 7.5 0 4.1 3.4 7.5 7.5 7.5H496c-.7 16-3.2 55.4-11.9 101.1 0 .1-.1.3-.1.4-11.4 59.6-30.6 122.9-71 169.7-7.7 8.9-16.9 19.3-29.7 19.3H41.5c-9.7 0-18.4-5.1-23.1-13.5-4.8-8.5-4.6-18.6.6-27 6.6-10.7 12.8-22.6 18.4-35.2 1.7-3.8 0-8.2-3.8-9.9-3.8-1.7-8.2 0-9.9 3.8-5.4 12.1-11.3 23.3-17.5 33.5-8 13-8.3 28.8-.9 42.1s21 21.2 36.2 21.2h30.9c9.5 25.7 34.1 43.1 61.9 43.1H445c36.4 0 66-29.6 66-66V98.1zM144.9 27.2c0-6.2 5-11.2 11.2-11.2s11.2 5 11.2 11.2v25c0 6-5.1 11.2-11.2 11.2-6 0-11.2-5.1-11.2-11.2v-25zM246.2 16c6.2 0 11.2 5 11.2 11.2v25c0 6-5.1 11.2-11.2 11.2-6.2 0-11.2-5-11.2-11.2v-25c0-6.2 5-11.2 11.2-11.2zm78.9 11.2c0-6.2 5-11.2 11.2-11.2 6.2 0 11.2 5 11.2 11.2v25c0 6.1-5.1 11.2-11.2 11.2s-11.2-5.1-11.2-11.2v-25zm90.1 0c0-6.2 5-11.2 11.2-11.2 6.2 0 11.2 5 11.2 11.2v25c0 6.1-5.1 11.2-11.2 11.2s-11.2-5.1-11.2-11.2v-25zM496 444.5c0 28.1-22.9 51-51 51H134.3c-19.5 0-37.1-11.2-45.6-28.2h294.4c10.7 0 20.9-4.1 28.6-11.4 8.7-8.3 16.5-17.4 23.6-27.1 25.3-34.6 41.2-75.4 52.5-116.5 3.1-11.2 5.8-22.5 8.2-33.8v166z"/></svg>