<svg id="Capa_1" xmlns="http://www.w3.org/2000/svg" viewBox="0 123.3 595.3 595.3"><style>.st0{fill:#999}</style><path class="st0" d="M297.6 123.3C133.5 123.3 0 256.8 0 420.9s133.5 297.6 297.6 297.6S595.2 585 595.2 420.9 461.8 123.3 297.6 123.3zm0 575.4c-153.2 0-277.8-124.6-277.8-277.8s124.6-277.8 277.8-277.8 277.8 124.6 277.8 277.8-124.6 277.8-277.8 277.8z"/><path class="st0" d="M307.6 381.5V280.8c0-5.5-4.4-9.9-9.9-9.9s-9.9 4.4-9.9 9.9v100.6c-13.9 3.6-24.7 14.5-28.4 28.4h-70.9c-5.5 0-9.9 4.4-9.9 9.9s4.4 9.9 9.9 9.9h70.9c4.4 17.1 19.8 29.8 38.3 29.8 21.9 0 39.7-17.8 39.7-39.7-.1-18.4-12.8-33.8-29.8-38.2zm-10 58.1c-10.9 0-19.8-8.9-19.8-19.8s8.9-19.8 19.8-19.8 19.8 8.9 19.8 19.8-8.8 19.8-19.8 19.8zM297.6 221.3c5.5 0 9.9-4.4 9.9-9.9v-9.9c0-5.5-4.4-9.9-9.9-9.9s-9.9 4.4-9.9 9.9v9.9c0 5.5 4.5 9.9 9.9 9.9zM297.6 618.2c-5.5 0-9.9 4.4-9.9 9.9v9.9c0 5.5 4.4 9.9 9.9 9.9s9.9-4.4 9.9-9.9v-9.9c.1-5.5-4.4-9.9-9.9-9.9zM515.9 409.8H506c-5.5 0-9.9 4.4-9.9 9.9s4.4 9.9 9.9 9.9h9.9c5.5 0 9.9-4.4 9.9-9.9s-4.4-9.9-9.9-9.9zM89.3 409.8h-9.9c-5.5 0-9.9 4.4-9.9 9.9s4.4 9.9 9.9 9.9h9.9c5.5 0 9.9-4.4 9.9-9.9s-4.4-9.9-9.9-9.9zM445 258.4l-7 7c-3.9 3.9-3.9 10.1 0 14 1.9 1.9 4.5 2.9 7 2.9s5.1-1 7-2.9l7-7c3.9-3.9 3.9-10.1 0-14-3.9-3.9-10.2-3.9-14 0zM143.3 560.1l-7 7c-3.9 3.9-3.9 10.1 0 14 1.9 1.9 4.5 2.9 7 2.9s5.1-1 7-2.9l7-7c3.9-3.9 3.9-10.1 0-14-3.8-3.9-10.1-3.9-14 0zM452 560.1c-3.9-3.9-10.1-3.9-14 0-3.9 3.9-3.9 10.1 0 14l7 7c1.9 1.9 4.5 2.9 7 2.9s5.1-1 7-2.9c3.9-3.9 3.9-10.1 0-14l-7-7zM150.3 258.4c-3.9-3.9-10.1-3.9-14 0-3.9 3.9-3.9 10.1 0 14l7 7c1.9 1.9 4.5 2.9 7 2.9s5.1-1 7-2.9c3.9-3.9 3.9-10.1 0-14l-7-7z"/></svg>