<svg id="Capa_1" xmlns="http://www.w3.org/2000/svg" viewBox="0 123.3 595.3 595.3"><style>.st0{fill:#999}</style><path class="st0" d="M527.2 279.4l-6.5 6.5c-12.2 12.2-21 15.7-39.4 15.7-37.2 0-64.3-27-64.3-64.3 0-18.4 3.5-27.3 15.7-39.4l6.5-6.5-68.1-68.1L0 494.4l68.1 68.1 6.5-6.5c12.2-12.2 21-15.7 39.4-15.7 37.2 0 64.3 27 64.3 64.3 0 18.4-3.5 27.3-15.7 39.4l-6.5 6.5 68.1 68.1 371.1-371.1-68.1-68.1zM181.8 650.2c10.9-13 14.8-25.6 14.8-45.6 0-47.1-35.5-82.6-82.6-82.6-20 0-32.6 3.9-45.7 14.8L26 494.4l216.6-216.6 30.2 30.2 13-13-30.2-30.2 115.6-115.6 42.4 42.4c-10.9 13-14.8 25.6-14.8 45.6 0 47.1 35.5 82.6 82.6 82.6 20 0 32.6-3.9 45.7-14.8l42.4 42.4-115.8 115.7-30.2-30.2-13 13 30.2 30.2-216.5 216.5-42.4-42.4z"/><path class="st0" d="M327.9 363.2l-36.7-36.7 13-13 36.7 36.7-13 13zM392.2 427.4l-36.7-36.7 13-13 36.7 36.7-13 13z"/></svg>