<svg id="Layer_1" xmlns="http://www.w3.org/2000/svg" viewBox="0 0 511.1 496.1"><style>.st0{fill:#e4002b}</style><path class="st0" d="M254.7 253.9l7.5 7.5c2.9 2.9 7.7 2.9 10.6 0s2.9-7.7 0-10.6l-7.5-7.5c-2.9-2.9-7.7-2.9-10.6 0-2.9 2.9-2.9 7.7 0 10.6zM345.4 178.3c2.8 2.8 7.7 2.9 10.6 0s2.9-7.7 0-10.6l-7.5-7.5c-2.9-2.9-7.7-2.9-10.6 0s-2.9 7.7 0 10.6l7.5 7.5zM297.8 231.8c7.6.5 15.2-2.5 20.6-7.9 5.5-5.5 8.4-13 7.9-20.6-.3-4.1-3.9-7.3-8-7s-7.2 3.8-7 8c.2 3.2-1.1 6.5-3.5 9-2.5 2.5-5.8 3.8-9 3.5-4.1-.3-7.7 2.8-8 7-.2 4.1 2.9 7.7 7 8z"/><path class="st0" d="M460 19.3c-13.7-13.7-36.5-13.6-50.1 0l-26.4 26.4c-3.1-1.5-6.5-2.3-10-2.3-6.1 0-11.9 2.4-16.2 6.7l-4.9 4.9H170.3c-4.1 0-7.5 3.4-7.5 7.5s3.4 7.5 7.5 7.5h168.6c-3.3 6.3-3.4 14.2-.3 20.6l-8 8H88.5V69.9h51.9c4.1 0 7.5-3.4 7.5-7.5s-3.4-7.5-7.5-7.5H88.5V20.2C88.5 7.6 76.3-2.2 64 .5 26.9 8.4 0 41.7 0 79.7V415c0 44.7 36.4 81 81 81h363.9c13.5 0 24.5-11 24.5-24.5v-308l.8-.8c4.3-4.3 6.7-10.1 6.7-16.2 0-3.5-.8-6.9-2.3-10l26.4-26.4c13.7-13.7 13.6-36.5 0-50.1l-41-40.7zm-86.5 39c2 0 4.1.7 5.6 2.3l80.4 80.4c3.1 3.1 3.1 8.2 0 11.2l-14.2 14.2c-3 3-8.2 3-11.2 0L353.7 86c-3.1-3.1-3.1-8.2 0-11.2l14.2-14.2c1.5-1.5 3.6-2.3 5.6-2.3zM171.9 363.9c-12-2.8-19.1-15.6-15.1-27.2l3.2-9.4 32.9 32.9c-6.9 2.3-13.6 5.4-21 3.7zm246.3-192.1L253 337l-69.8-69.8L348.4 102l69.8 69.8zm-179 172.6l-30.5 10.4-43.3-43.3 10.4-30.5 63.4 63.4zM67.2 15.1c3.2-.7 6.4 1.8 6.4 5.1v309.5c0 2.4-2 4.8-4.3 5.1-21.7 3.2-41.6 15.6-54.3 33.4V79.7c0-30.9 21.9-58.1 52.2-64.6zm387.2 456.5c0 5.2-4.3 9.5-9.5 9.5H81c-36.4 0-66.1-29.6-66.1-66.1 0-9.2 1.9-18.1 5.5-26.5 4.9-11.2 13.2-20.9 23.3-27.9v57.8c0 .3 0 .6.1.9 2.2 19 18.2 33.2 37.2 33.2h252.1c4.1 0 7.5-3.4 7.5-7.5s-3.3-7.5-7.5-7.5H81c-11.3 0-20.8-8.3-22.3-19.5v-65.2c0-1.4 11.8-3.1 12.8-3.3 9.7-1.5 16.9-10 16.9-19.9V113.5h227.2L167.3 261.8c-.8.9-1.5 1.8-1.9 3l-22.9 67.1c-4.3 12.8-.9 27.5 8.6 37s24.3 13 37 8.6l67.1-22.9c1.2-.4 2.2-1.1 3.1-2l152.4-152.4v237.2h-47.8c-4.1 0-7.5 3.4-7.5 7.5s3.4 7.5 7.5 7.5h55.3c4.1 0 7.5-3.4 7.5-7.5V185.3l3.8-3.8c7.9 3.9 17.8 2.7 24.6-3l.1-.1v293.2h.2zm35.9-371.9l-25.5 25.4L395 55.3l25.4-25.4c7.9-7.9 21-7.9 28.9 0l40.9 40.9c8 7.8 8 21 .1 28.9z"/></svg>