<svg id="Layer_1" xmlns="http://www.w3.org/2000/svg" viewBox="0 0 313.5 512"><style>.st0{fill:#e4002b}</style><path class="st0" d="M306 117.8c4.1 0 7.5-3.4 7.5-7.5V50.8c0-4.1-3.4-7.5-7.5-7.5-19.7 0-35.8-16-35.8-35.8 0-4.1-3.4-7.5-7.5-7.5h-57.2c-4.1 0-7.5 3.4-7.5 7.5 0 22.8-18.5 41.3-41.3 41.3s-41.3-18.5-41.3-41.3c0-4.1-3.4-7.5-7.5-7.5H50.8c-4.1 0-7.5 3.4-7.5 7.5 0 19.7-16 35.8-35.8 35.8-4.1 0-7.5 3.4-7.5 7.5v410.5c0 4.1 3.4 7.5 7.5 7.5 19.7 0 35.8 16 35.8 35.8 0 4.1 3.4 7.5 7.5 7.5H108c4.1 0 7.5-3.4 7.5-7.5 0-22.8 18.5-41.3 41.3-41.3s41.3 18.5 41.3 41.3c0 4.1 3.4 7.5 7.5 7.5h57.2c4.1 0 7.5-3.4 7.5-7.5 0-19.7 16-35.8 35.8-35.8 4.1 0 7.5-3.4 7.5-7.5V137.7c0-4.1-3.4-7.5-7.5-7.5s-7.5 3.4-7.5 7.5v316.6c-22 3.3-39.4 20.7-42.7 42.7h-43.3c-3.7-27.5-27.3-48.8-55.8-48.8S104.7 469.5 101 497H57.7C54.4 475 37 457.6 15 454.3V57.7C37 54.4 54.4 37 57.7 15H101c3.7 27.5 27.3 48.8 55.8 48.8s52.1-21.3 55.8-48.8h43.3c3.3 22 20.7 39.4 42.7 42.7v52.6c-.1 4.1 3.2 7.5 7.4 7.5z"/><path class="st0" d="M264.8 155.6c0-4.1-3.4-7.5-7.5-7.5-13.1 0-23.8-10.7-23.8-23.8 0-4.1-3.4-7.5-7.5-7.5H87.4c-4.1 0-7.5 3.4-7.5 7.5 0 13.1-10.7 23.8-23.8 23.8-4.1 0-7.5 3.4-7.5 7.5v120.6c0 4.1 3.4 7.5 7.5 7.5s7.5-3.4 7.5-7.5V162.3c15.4-3 27.5-15.2 30.5-30.5h125.1c3 15.4 15.2 27.5 30.5 30.5v187.3c-15.4 3-27.5 15.2-30.5 30.5h-125c-3-15.4-15.2-27.5-30.5-30.5v-45.5c0-4.1-3.4-7.5-7.5-7.5s-7.5 3.4-7.5 7.5v52.3c0 4.1 3.4 7.5 7.5 7.5 13.1 0 23.8 10.7 23.8 23.8 0 4.1 3.4 7.5 7.5 7.5h138.6c4.1 0 7.5-3.4 7.5-7.5 0-13.1 10.7-23.8 23.8-23.8 4.1 0 7.5-3.4 7.5-7.5V155.6h-.1zM257.3 83.4H56.2c-4.1 0-7.5 3.4-7.5 7.5s3.4 7.5 7.5 7.5h201.2c4.1 0 7.5-3.4 7.5-7.5s-3.4-7.5-7.6-7.5zM257.3 413.6H56.2c-4.1 0-7.5 3.4-7.5 7.5s3.4 7.5 7.5 7.5h201.2c4.1 0 7.5-3.4 7.5-7.5s-3.4-7.5-7.6-7.5z"/><path class="st0" d="M156.7 225.3c9.6 0 18.5-5.2 23.3-13.5 2.1-3.6.8-8.2-2.8-10.2-3.6-2.1-8.2-.8-10.2 2.8-2.1 3.7-6 5.9-10.3 5.9-4.2 0-8.1-2.3-10.3-5.9a7.52 7.52 0 0 0-10.2-2.8 7.52 7.52 0 0 0-2.8 10.2c4.9 8.4 13.8 13.5 23.3 13.5zM220.4 196c4.1 0 7.5-3.4 7.5-7.5v-11.4c0-4.1-3.4-7.5-7.5-7.5s-7.5 3.4-7.5 7.5v11.4c0 4.2 3.4 7.5 7.5 7.5zM93.1 196c4.1 0 7.5-3.4 7.5-7.5v-11.4c0-4.1-3.4-7.5-7.5-7.5s-7.5 3.4-7.5 7.5v11.4c0 4.2 3.3 7.5 7.5 7.5zM207.3 210c0 4.1 3.4 7.5 7.5 7.5h11.4c4.1 0 7.5-3.4 7.5-7.5s-3.4-7.5-7.5-7.5h-11.4c-4.2 0-7.5 3.4-7.5 7.5zM79.9 210c0 4.1 3.4 7.5 7.5 7.5h11.4c4.1 0 7.5-3.4 7.5-7.5s-3.4-7.5-7.5-7.5H87.4c-4.2 0-7.5 3.4-7.5 7.5z"/></svg>