<svg xmlns="http://www.w3.org/2000/svg" viewBox="0 0 491.9 512"><path d="M491.9 198.8c0-36.6-29.8-66.3-66.3-66.3h-39.3c5.7-8.5 9.9-17.9 12.3-27.9 1-4-1.5-8.1-5.6-9-4-1-8.1 1.5-9 5.6-2.8 11.7-8.6 22.5-16.8 31.4h-137c-2.9-32.2 15.8-76.5 36.4-97 27.3-27.3 71.6-27.3 98.9 0 10.1 10.1 16.8 22.9 19.4 37 .7 4.1 4.6 6.8 8.7 6.1 4.1-.7 6.8-4.6 6.1-8.7-3.1-17.1-11.2-32.6-23.5-44.9C360 8.8 338.7 0 316 0c-22.7 0-44 8.8-60 24.9-3.4 3.4-6.8 7.4-10 11.7-3.3-4.4-6.6-8.3-10-11.7-33.1-33.1-87-33.1-120.1 0-29.2 29.2-32.6 74.6-10.3 107.6H66.3C29.8 132.5 0 162.3 0 198.8c0 32 22.7 58.7 52.9 64.9V435c0 42.5 34.5 77 77 77h236.5c42.5 0 77-34.5 77-77V262.7c27.9-7.7 48.5-33.4 48.5-63.9zm-296.6 51.3V147.5h105.6v102.6H195.3zm105.6 15V497H195.3V265.1h105.6zM126.5 35.5c27.3-27.3 71.6-27.3 98.9 0 4 4 8 8.9 11.8 14.6-14.2 24.3-24 55.8-21.9 82.4h-90.5c-25.6-27.4-25-70.4 1.7-97zM67.9 435V265.1h12.9c4.1 0 7.5-3.4 7.5-7.5s-3.4-7.5-7.5-7.5H66.3c-28.3 0-51.3-23-51.3-51.3s23-51.3 51.3-51.3h113.9v102.6h-66.5c-4.1 0-7.5 3.4-7.5 7.5s3.4 7.5 7.5 7.5h66.5V497h-50.4c-34.1 0-61.9-27.8-61.9-62zm360.4 0c0 34.2-27.8 62-62 62h-50.4V265.1s111.5 0 112.4-.1v170zm-2.7-184.9H315.9V147.5h109.7c28.3 0 51.3 23 51.3 51.3s-23 51.3-51.3 51.3z"/></svg>