<svg id="Layer_1" xmlns="http://www.w3.org/2000/svg" viewBox="0 0 512 512"><style>.st0{fill:#ffea01}</style><path class="st0" d="M500.4 477.5l-43.1-181.6c2.5-1.2 4.7-2.9 6.4-5.1 3.3-4.3 4.5-9.8 3.2-15l-10.1-40c-2-7.8-8.9-13.2-17-13.2H436c-36.7-14.5-68.8-31.9-95.2-51.6-3.3-2.5-8-1.8-10.5 1.5s-1.8 8 1.5 10.5c19.5 14.5 41.8 27.8 66.6 39.6H102.8c100.3-47.8 131.3-105.4 139-123.7h17.6c4.4 10.4 17.9 37.2 51.8 67.3 3.1 2.8 7.8 2.5 10.6-.6s2.5-7.8-.6-10.6c-31.9-28.4-44.2-52.9-48-62.2-2.3-5.4-7.5-9-13.4-9h-1.7v-6.7l95.7-27.9c4.3-1.3 7.3-5.3 7.3-9.8 0-4.5-3-8.5-7.3-9.8L252.8.3h-.1-.1c-.2-.1-.4-.1-.6-.1h-.3c-.2 0-.3 0-.5-.1h-1.1c-.2 0-.4 0-.5.1h-.3c-.3 0-.5.1-.7.2-.3.1-.5.2-.8.3h-.1l-.6.3c-.1 0-.1.1-.2.1-.2.1-.3.2-.5.3l-.1.1-.1.1c-.1.1-.3.2-.4.4l-.2.2-.5.5-.1.1c-.2.2-.3.4-.5.6 0 .1-.1.1-.1.2-.1.2-.2.4-.3.5 0 .1-.1.1-.1.2-.1.2-.2.4-.2.5 0 .1-.1.2-.1.2-.1.2-.1.4-.2.6 0 .1 0 .2-.1.2 0 .2-.1.4-.1.6v.2c0 .3-.1.6-.1.8v76.3h-1.6c-5.9 0-11.1 3.5-13.4 9-3.2 7.7-13.3 28.2-38.1 52.8-30.7 30.5-72.7 56.3-124.8 76.9h-3.8c-8 0-15 5.4-17 13.2l-10.1 40c-1.3 5.3-.2 10.8 3.2 15 1.7 2.2 3.9 4 6.4 5.1L.8 477.5c-2 8.4-.1 17.1 5.3 23.9 5.4 6.8 13.4 10.7 22 10.7h445c8.6 0 16.7-3.9 22-10.7 5.3-6.8 7.3-15.5 5.3-23.9zm-242.3-416v-44l75.5 22-75.5 22zM48.8 279.4l10.1-40c.3-1.1 1.3-1.9 2.4-1.9H439.6c1.1 0 2.1.8 2.4 1.9l10.1 40c.3 1-.2 1.8-.5 2.1s-.9 1-2 1H51.3c-1.1 0-1.7-.6-2-1s-.7-1.1-.5-2.1zm201.8 166.5c-4.1 0-7.5 3.4-7.5 7.5V497H134.8l23.7-199.5h84.6v127.9c0 4.1 3.4 7.5 7.5 7.5s7.5-3.4 7.5-7.5v-71.1L360.2 497H258.1v-43.6c0-4.1-3.4-7.5-7.5-7.5zm21.3-98.1l116.9 48.1c2.3 1 3.6 3.4 3 5.9l-20.4 85.1-99.5-139.1zm-13.8-21.9v-28.4h84.6l7.9 66.4-92.5-38zM17.8 492c-2.5-3.1-3.4-7.2-2.5-11.1l43.5-183.4h84.4L119.7 497H28.1c-4.1 0-7.8-1.8-10.3-5zm465.5 0c-2.5 3.1-6.2 5-10.2 5h-88.7l22-91.8c2.3-9.7-2.7-19.5-11.9-23.2l-28-11.5-8.7-72.9h84.4L485.7 481c1 3.8.1 7.9-2.4 11z"/></svg>