<svg id="Layer_1" xmlns="http://www.w3.org/2000/svg" viewBox="0 123.3 595.3 595.3"><style>.st0{fill:#cacdd3}</style><path class="st0" d="M375.9 420.9l69-69c4.5-4.5 7-10.5 7-16.8s-2.5-12.3-7-16.8l-44.6-44.6c-4.5-4.5-10.5-7-16.8-7s-12.3 2.5-16.8 7l-69 69-69-69c-4.5-4.5-10.5-7-16.8-7-6.4 0-12.3 2.5-16.8 7l-44.6 44.6c-9.3 9.3-9.3 24.4 0 33.7l69 69-69 69c-9.3 9.3-9.3 24.4 0 33.7l44.6 44.6c4.5 4.5 10.5 7 16.8 7 6.4 0 12.3-2.5 16.8-7l69-69 69 69c4.5 4.5 10.5 7 16.8 7s12.3-2.5 16.8-7l44.6-44.6c4.5-4.5 7-10.5 7-16.8 0-6.4-2.5-12.3-7-16.8l-69-69.2zm55.3 89l-44.6 44.6c-1.1 1.1-2.4 1.3-3.1 1.3-.7 0-2-.2-3.1-1.3l-75.8-75.8c-1.9-1.9-4.4-2.8-6.8-2.8s-5 .9-6.8 2.8l-76 75.8c-1.1 1.1-2.4 1.3-3.1 1.3-.7 0-2-.2-3.1-1.3l-44.6-44.6c-1.7-1.7-1.7-4.5 0-6.3l75.8-75.8c3.8-3.8 3.8-9.9 0-13.7l-75.8-75.8c-1.7-1.7-1.7-4.5 0-6.3l44.6-44.6c1.1-1.1 2.4-1.3 3.1-1.3.7 0 2 .2 3.1 1.3l75.8 75.8c3.8 3.8 9.9 3.8 13.7 0l75.8-75.8c1.1-1.1 2.4-1.3 3.1-1.3s2 .2 3.1 1.3l44.6 44.6c1.1 1.1 1.3 2.4 1.3 3.1 0 .7-.2 2-1.3 3.1L355.3 414c-3.8 3.8-3.8 9.9 0 13.7l75.8 75.8c1.1 1.1 1.3 2.4 1.3 3.1s-.1 2.1-1.2 3.3z"/><path class="st0" d="M506.5 209c-3.8-3.8-9.9-3.7-13.7.1-3.8 3.8-3.7 9.9.1 13.7 53.5 52.7 83 123.1 83 198.2 0 74.3-28.9 144.2-81.5 196.8S372 699.2 297.6 699.2c-41.1 0-80.8-8.8-117.8-26.1-4.8-2.3-10.6-.2-12.9 4.7-2.3 4.8-.2 10.6 4.7 12.9 39.6 18.5 82 27.9 126 27.9 79.5 0 154.2-31 210.5-87.2 56.2-56.2 87.2-131 87.2-210.5 0-80.3-31.5-155.5-88.8-211.9zM476.1 182.8c-51.8-38.9-113.5-59.4-178.5-59.4-79.5 0-154.2 31-210.5 87.2C31 266.7 0 341.4 0 420.9c0 101 50.6 194.2 135.3 249.5 1.6 1.1 3.5 1.6 5.3 1.6 3.2 0 6.3-1.5 8.1-4.4 2.9-4.5 1.7-10.5-2.8-13.4C66.6 602.5 19.4 515.3 19.4 420.9c0-74.3 28.9-144.2 81.5-196.8 52.6-52.6 122.4-81.5 196.8-81.5 60.7 0 118.4 19.2 166.9 55.6 4.3 3.2 10.3 2.3 13.6-1.9a9.72 9.72 0 0 0-2.1-13.5z"/></svg>