<svg id="Layer_1" xmlns="http://www.w3.org/2000/svg" viewBox="0 0 475.4 512"><style>.st0{fill:#ffea01}</style><path class="st0" d="M288.6 391.9h-5.7l-17.8-84c-3.6-17-18.8-29.3-36.2-29.3h-34.3c-17.4 0-32.6 12.3-36.2 29.3l-17.8 84H135c-17.9 0-32.5 14.6-32.5 32.5s14.6 32.5 32.5 32.5h153.6c17.9 0 32.5-14.6 32.5-32.5-.1-17.9-14.6-32.5-32.5-32.5zM228.8 367v24.9h-34V367h34zm15 0h18.5l5.3 24.9h-23.8V367zm-70.7-56c2.1-10.1 11.2-17.4 21.5-17.4h34.3c10.3 0 19.4 7.3 21.5 17.4l8.7 41h-94.7l8.7-41zm-11.8 56h18.5v24.9H156l5.3-24.9zm127.3 74.8H135c-9.6 0-17.5-7.8-17.5-17.5s7.8-17.5 17.5-17.5h153.6c9.6 0 17.5 7.8 17.5 17.5s-7.9 17.5-17.5 17.5z"/><path class="st0" d="M404.9 88.5h-86c-1-13.5-4.5-26.2-10.3-36.4-6.8-12.1-15.7-19-24.3-19-8.6 0-17.5 6.9-24.3 19-6.8 12.1-10.6 27.6-10.6 43.9 0 13.1 2.5 25.8 7.2 36.7 4.2 9.6 9.9 17.4 16.1 22.1 3.9 3 6.5 10.3-.3 15.8-2.6 2.1-6.6 1.3-9.6-.7-19.1-13.2-31.5-42.2-31.5-73.9 0-22.1 5.8-42.8 16.4-58.3 10-14.6 23-22.6 36.6-22.6 21.5 0 41.3 20.7 49.3 51.4 1 4 5.1 6.4 9.1 5.4s6.4-5.1 5.4-9.1c-4.6-17.8-12.8-33.2-23.7-44.4C312.7 6.3 298.9 0 284.3 0c-18.7 0-36.1 10.4-48.9 29.2-11 16.1-17.6 37-18.8 59.3H207c-1.2-22.3-7.8-43.1-18.8-59.3C175.3 10.4 158 0 139.3 0s-36.1 10.4-48.9 29.2c-11 16.1-17.6 37-18.8 59.3 0 0-71.5 4.9-71.5 70.5v282.6C0 480.4 31.6 512 70.5 512H405c38.9 0 70.5-31.6 70.5-70.5V158.9c-.1-38.8-31.7-70.4-70.6-70.4zm0 15c30.6 0 55.5 24.9 55.5 55.5v64.4h-36.8V159c0-22.5-10.6-42.6-27.1-55.5h8.4zM273 59.5c4.8-8.5 9.8-11.4 11.3-11.4 4.5 0 17.5 14.3 19.6 40.4h-39.2c1.2-14.4 5.5-24.2 8.3-29zM102.7 37.6c10-14.6 23-22.6 36.6-22.6 13.6 0 26.6 8 36.6 22.6 9.4 13.7 15 31.5 16.2 50.8H174c-1-13.5-4.6-26.2-10.3-36.4-6.8-12.1-15.7-19-24.3-19s-17.5 6.9-24.3 19c-6.8 12.1-10.6 27.6-10.6 43.9 0 13.1 2.5 25.8 7.2 36.7 4.2 9.6 9.9 17.4 16.1 22.1 3.9 3 6.6 10.5-.3 15.8-2.7 2.1-6.6 1.3-9.6-.7-19.2-13.1-31.6-42.1-31.6-73.8 0-22.2 5.8-42.9 16.4-58.4zm56.2 50.9h-39.2c1.2-14.3 5.6-24.1 8.3-29 4.8-8.5 9.8-11.4 11.3-11.4 4.5-.1 17.4 14.2 19.6 40.4zM70.5 497C39.9 497 15 472.1 15 441.5V238.4h38.7c4.1 0 7.5-3.4 7.5-7.5s-3.4-7.5-7.5-7.5H15V159c0-50.3 56.5-55.5 56.5-55.5 1.8 34 16 63.7 37.8 78.8 4.2 2.9 13.8 7.2 25 1.6 7.7-3.8 12.2-11.5 12.3-20.2.3-4.9-1.4-14.5-9.9-20.9-10.2-7.6-15.6-24.5-17-39.3h96.8c1.8 34 16 63.7 37.8 78.8 4.2 2.9 14.4 7.4 25 1.6 7.5-4.1 12.2-11.5 12.3-20.2.3-4.9-1.4-14.5-9.9-20.9-10.2-7.6-15.6-24.5-17-39.3h88.4c30.6 0 55.5 24.9 55.5 55.5v64.5H85.4c-4.1 0-7.5 3.4-7.5 7.5s3.4 7.5 7.5 7.5h323.1v203.2c0 30.6-24.9 55.5-55.5 55.5L70.5 497zm334.4 0h-8.5c16.5-12.9 27.1-33 27.1-55.5V238.4h36.8v203.2c.1 30.5-24.8 55.4-55.4 55.4z"/></svg>