<svg id="Layer_1" xmlns="http://www.w3.org/2000/svg" viewBox="0 0 444.6 512"><style>.st0{fill:#ffea01}</style><path class="st0" d="M172 212.6c4.1 0 7.5-3.4 7.5-7.5V196c0-4.1-3.4-7.5-7.5-7.5s-7.5 3.4-7.5 7.5v9.1c0 4.1 3.4 7.5 7.5 7.5zM272.6 212.6c4.1 0 7.5-3.4 7.5-7.5V196c0-4.1-3.4-7.5-7.5-7.5s-7.5 3.4-7.5 7.5v9.1c0 4.1 3.4 7.5 7.5 7.5zM222.3 217.4c7 0 13.6-2.9 18.1-8.1 2.7-3.1 2.4-7.9-.7-10.6-3.1-2.7-7.9-2.4-10.6.7-1.6 1.9-4.1 2.9-6.8 2.9s-5.1-1.1-6.8-2.9c-2.7-3.1-7.5-3.4-10.6-.7-3.1 2.7-3.4 7.5-.7 10.6 4.5 5.2 11.1 8.1 18.1 8.1zM124 129.7c0-12.9-10.5-23.4-23.4-23.4s-23.4 10.5-23.4 23.4 10.5 23.4 23.4 23.4 23.4-10.5 23.4-23.4zm-31.8 0c0-4.6 3.8-8.4 8.4-8.4 4.6 0 8.4 3.8 8.4 8.4 0 4.6-3.8 8.4-8.4 8.4-4.6 0-8.4-3.7-8.4-8.4zM50.1 213.6c0 12.9 10.5 23.4 23.4 23.4s23.4-10.5 23.4-23.4-10.5-23.4-23.4-23.4-23.4 10.5-23.4 23.4zm31.8 0c0 4.6-3.8 8.4-8.4 8.4s-8.4-3.8-8.4-8.4c0-4.6 3.8-8.4 8.4-8.4s8.4 3.8 8.4 8.4zM347.3 85.4c0-12.9-10.5-23.4-23.4-23.4s-23.4 10.5-23.4 23.4c0 12.9 10.5 23.4 23.4 23.4s23.4-10.5 23.4-23.4zm-23.4 8.4c-4.6 0-8.4-3.8-8.4-8.4 0-4.6 3.8-8.4 8.4-8.4 4.6 0 8.4 3.8 8.4 8.4 0 4.6-3.8 8.4-8.4 8.4zM351 192.6c12.9 0 23.4-10.5 23.4-23.4s-10.5-23.4-23.4-23.4-23.4 10.5-23.4 23.4 10.5 23.4 23.4 23.4zm0-31.7c4.6 0 8.4 3.8 8.4 8.4 0 4.6-3.8 8.4-8.4 8.4-4.6 0-8.4-3.8-8.4-8.4 0-4.7 3.7-8.4 8.4-8.4z"/><path class="st0" d="M417.3 312.9c3.8 1.6 8.2-.2 9.8-4 11.6-27.5 17.5-56.6 17.5-86.6 0-59.4-23.1-115.2-65.1-157.2S281.7 0 222.3 0c-40.5 0-80.2 11-114.7 31.8-3.5 2.1-4.7 6.7-2.5 10.3 2.1 3.5 6.8 4.7 10.3 2.6C147.6 25.3 184.5 15 222.3 15c114.3 0 207.3 93 207.3 207.3 0 28-5.5 55.1-16.3 80.8-1.6 3.8.1 8.2 4 9.8z"/><path class="st0" d="M76.4 390v48.7c-10.4 5.3-35 20.4-43 47.7-3.7 12.6 6.1 25.5 19.1 25.5h339.7c13.1 0 22.8-12.9 19.1-25.5-8.1-27.3-32.7-42.4-43-47.7V390c17.3-15 32.1-32.5 44-52.1 2.2-3.5 1-8.2-2.5-10.3-3.5-2.2-8.1-1-10.3 2.5-11.2 18.4-25.2 34.9-41.5 49H251v-31.9h63.8c23.9 0 38.5-27.6 25.1-47.4l-30.6-45.1c6.8-2.1 12.6-6.7 16-13.2 4.7-8.9 4.1-19.5-1.5-27.8l-46.4-68.4h.2c16.6 0 26.8-19.2 17.5-33 0 0-47.4-69.9-47.5-70-12.8-15.8-37.6-15.7-50.4 0-.1.2-47.5 70-47.5 70-9.4 13.8.9 33 17.5 33h.2L121 213.7c-10.1 14.8-2.6 35.9 14.5 41l-30.6 45.1c-13.4 19.8 1.3 47.4 25.1 47.4h63.8v31.9H86.7C41.1 339.7 15 282.7 15 222.3c0-62.6 27.8-121.1 76.4-160.7 3.2-2.6 3.7-7.3 1.1-10.6-2.6-3.2-7.3-3.7-10.6-1.1C29.9 92.4 0 155.2 0 222.3 0 286.8 27.8 347.7 76.4 390zm90.7-259.8c-4.9 0-7.8-5.6-5.1-9.6l46.9-69.2c5.6-8.3 21.1-8.4 26.8 0l46.9 69.2c2.7 4-.3 9.6-5.1 9.6H167.1zm-34.4 104.2c-2-3.7-2.1-8.4.6-12.3l52.1-76.8h73.9s52 76.6 52.1 76.8c5.4 7.9-.5 18.8-10 18.8H143.2c-4.7 0-8.6-2.8-10.5-6.5zm-2.8 97.8c-12.1 0-19.5-13.9-12.7-23.9l35.5-52.4h139.2s35.4 52.2 35.5 52.4c6.8 10-.6 23.9-12.7 23.9H129.9zm106.1 15v31.9h-27.3v-31.9H236zM91.4 394.1h261.7V436H91.4v-41.9zM359.1 451c5.9 2.7 30.6 15.5 37.7 39.8.9 3.1-1.5 6.2-4.7 6.2H52.5c-3.2 0-5.6-3.2-4.7-6.2 7.1-24.1 31.9-37 37.8-39.8h273.5z"/></svg>